<?xml version="1.0" encoding="UTF-8"?>
<svg version="1.1" xmlns="http://www.w3.org/2000/svg" width="512" height="512">
<path d="M0 0 C1.56143586 -0.00462113 3.12286735 -0.0109821 4.68428993 -0.01890898 C8.93135645 -0.03545932 13.17805902 -0.02742186 17.42512608 -0.0149641 C22.0223532 -0.00585674 26.61952082 -0.01991134 31.21673584 -0.03088379 C40.20545632 -0.04861328 49.19404274 -0.04485394 58.18276834 -0.03323323 C65.49207561 -0.02417717 72.80134547 -0.02298428 80.11065674 -0.02732849 C81.15338009 -0.02794142 82.19610345 -0.02855436 83.27042449 -0.02918586 C85.38910152 -0.03046484 87.50777854 -0.0317617 89.62645555 -0.03307623 C109.46480026 -0.04446571 129.30307088 -0.03139396 149.14140344 -0.00987476 C166.14101828 0.00799472 183.14052384 0.00489016 200.14013672 -0.0135498 C219.91045872 -0.03498538 239.68071589 -0.04336723 259.4510479 -0.03110075 C261.56166457 -0.02982664 263.67228126 -0.02856915 265.78289795 -0.02732849 C267.34034522 -0.02640284 267.34034522 -0.02640284 268.92925608 -0.02545848 C276.22460216 -0.02201364 283.5199069 -0.02781521 290.81524658 -0.0372467 C299.71326199 -0.04849796 308.61113635 -0.04536112 317.50913572 -0.02412373 C322.0437238 -0.01365528 326.57807725 -0.00941921 331.11266327 -0.02272034 C335.27276367 -0.0347379 339.43241444 -0.02792952 343.5924747 -0.00681013 C345.08824117 -0.00238335 346.58404653 -0.00452065 348.07978749 -0.01431328 C361.27887936 -0.09402261 373.63249029 2.08353914 385.38427734 8.38293457 C386.05330078 8.73025635 386.72232422 9.07757813 387.41162109 9.4354248 C392.30228039 12.02940853 396.74044789 14.89566532 400.94677734 18.50793457 C401.58486328 19.00422363 402.22294922 19.5005127 402.88037109 20.01184082 C417.40387275 31.76087237 425.54499091 49.44703706 428.94677734 67.50793457 C429.46536956 72.8686724 429.48991908 78.18355908 429.45471191 83.56115723 C429.45933304 85.12259309 429.46569401 86.68402458 429.47362089 88.24544716 C429.49017123 92.49251367 429.48213378 96.73921624 429.46967602 100.9862833 C429.46056865 105.58351043 429.47462325 110.18067804 429.4855957 114.77789307 C429.5033252 123.76661355 429.49956586 132.75519997 429.48794514 141.74392557 C429.47888909 149.05323284 429.47769619 156.36250269 429.48204041 163.67181396 C429.48265334 164.71453732 429.48326627 165.75726068 429.48389778 166.83158171 C429.48517676 168.95025874 429.48647361 171.06893576 429.48778814 173.18761277 C429.49917762 193.02595749 429.48610588 212.8642281 429.46458668 232.70256066 C429.44671719 249.70217551 429.44982176 266.70168107 429.46826172 283.70129395 C429.48969729 303.47161595 429.49807914 323.24187312 429.48581266 343.01220512 C429.48453855 345.1228218 429.48328106 347.23343848 429.48204041 349.34405518 C429.4814233 350.38235336 429.4808062 351.42065154 429.4801704 352.49041331 C429.47672556 359.78575939 429.48252713 367.08106413 429.49195862 374.37640381 C429.50320987 383.27441921 429.50007303 392.17229358 429.47883564 401.07029295 C429.46836719 405.60488103 429.46413112 410.13923447 429.47743225 414.6738205 C429.48944981 418.8339209 429.48264143 422.99357167 429.46152204 427.15363193 C429.45709527 428.6493984 429.45923257 430.14520375 429.46902519 431.64094472 C429.54873452 444.84003658 427.37117277 457.19364752 421.07177734 468.94543457 C420.72445557 469.61445801 420.37713379 470.28348145 420.01928711 470.97277832 C417.42530339 475.86343762 414.5590466 480.30160512 410.94677734 484.50793457 C410.45048828 485.14602051 409.95419922 485.78410645 409.44287109 486.44152832 C397.69383954 500.96502998 380.00767486 509.10614813 361.94677734 512.50793457 C356.58603951 513.02652679 351.27115284 513.05107631 345.89355469 513.01586914 C344.33211883 513.02049027 342.77068733 513.02685124 341.20926476 513.03477812 C336.96219824 513.05132846 332.71549567 513.04329101 328.46842861 513.03083324 C323.87120149 513.02172588 319.27403387 513.03578048 314.67681885 513.04675293 C305.68809836 513.06448243 296.69951195 513.06072308 287.71078634 513.04910237 C280.40147908 513.04004631 273.09220922 513.03885342 265.78289795 513.04319763 C264.74017459 513.04381056 263.69745124 513.0444235 262.6231302 513.045055 C260.50445317 513.04633398 258.38577615 513.04763084 256.26709914 513.04894537 C236.42875443 513.06033485 216.59048381 513.0472631 196.75215125 513.0257439 C179.75253641 513.00787442 162.75303084 513.01097898 145.75341797 513.02941895 C125.98309596 513.05085452 106.2128388 513.05923637 86.44250679 513.04696989 C84.33189012 513.04569578 82.22127343 513.04443829 80.11065674 513.04319763 C78.55320946 513.04227198 78.55320946 513.04227198 76.96429861 513.04132763 C69.66895253 513.03788278 62.37364778 513.04368435 55.07830811 513.05311584 C46.1802927 513.0643671 37.28241834 513.06123026 28.38441896 513.03999287 C23.84983089 513.02952442 19.31547744 513.02528835 14.78089142 513.03858948 C10.62079101 513.05060704 6.46114025 513.04379866 2.30107999 513.02267927 C0.80531352 513.01825249 -0.69049184 513.0203898 -2.18623281 513.03018242 C-15.38532467 513.10989175 -27.7389356 510.93233 -39.49072266 504.63293457 C-40.15974609 504.28561279 -40.82876953 503.93829102 -41.51806641 503.58044434 C-46.40872571 500.98646061 -50.84689321 498.12020383 -55.05322266 494.50793457 C-56.01035156 493.76350098 -56.01035156 493.76350098 -56.98681641 493.00402832 C-71.51031806 481.25499677 -79.65143622 463.56883208 -83.05322266 445.50793457 C-83.57181488 440.14719674 -83.5963644 434.83231007 -83.56115723 429.45471191 C-83.56577835 427.89327605 -83.57213933 426.33184456 -83.5800662 424.77042198 C-83.59661655 420.52335547 -83.58857909 416.2766529 -83.57612133 412.02958584 C-83.56701397 407.43235871 -83.58106857 402.8351911 -83.59204102 398.23797607 C-83.60977051 389.24925559 -83.60601117 380.26066917 -83.59439045 371.27194357 C-83.5853344 363.9626363 -83.5841415 356.65336645 -83.58848572 349.34405518 C-83.58909865 348.30133182 -83.58971158 347.25860846 -83.59034309 346.18428743 C-83.59162207 344.0656104 -83.59291892 341.94693338 -83.59423345 339.82825637 C-83.60562294 319.98991166 -83.59255119 300.15164104 -83.57103199 280.31330848 C-83.5531625 263.31369363 -83.55626707 246.31418807 -83.57470703 229.3145752 C-83.5961426 209.54425319 -83.60452445 189.77399602 -83.59225798 170.00366402 C-83.59098386 167.89304734 -83.58972638 165.78243066 -83.58848572 163.67181396 C-83.58786862 162.63351578 -83.58725151 161.5952176 -83.58661571 160.52545583 C-83.58317087 153.23010975 -83.58897244 145.93480501 -83.59840393 138.63946533 C-83.60965519 129.74144993 -83.60651834 120.84357556 -83.58528095 111.94557619 C-83.5748125 107.41098811 -83.57057643 102.87663467 -83.58387756 98.34204865 C-83.59589513 94.18194824 -83.58908675 90.02229747 -83.56796736 85.86223722 C-83.56354058 84.36647074 -83.56567788 82.87066539 -83.57547051 81.37492442 C-83.65517983 68.17583256 -81.47761808 55.82222162 -75.17822266 44.07043457 C-74.83090088 43.40141113 -74.4835791 42.7323877 -74.12573242 42.04309082 C-71.5317487 37.15243152 -68.66549191 32.71426402 -65.05322266 28.50793457 C-64.55693359 27.86984863 -64.06064453 27.2317627 -63.54931641 26.57434082 C-48.03382187 7.39494637 -23.84538253 -0.15611588 0 0 Z " fill="#D90037" transform="translate(83.05322265625,-0.5079345703125)"/>
<path d="M0 0 C9.25888902 -0.0933248 18.51761225 -0.16407797 27.77687168 -0.20724869 C32.0778998 -0.22798487 36.37860247 -0.25604143 40.67944336 -0.30175781 C44.84217898 -0.34572135 49.00460471 -0.36924164 53.16755486 -0.37950897 C54.74333502 -0.38681097 56.31910126 -0.40106525 57.89474678 -0.42292023 C71.60279879 -0.60522322 84.15920942 1.29337908 96.4375 7.875 C97.10652344 8.22232178 97.77554687 8.56964355 98.46484375 8.92749023 C103.35550305 11.52147396 107.79367055 14.38773075 112 18 C112.63808594 18.49628906 113.27617187 18.99257813 113.93359375 19.50390625 C128.4570954 31.2529378 136.59821356 48.93910249 140 67 C140.51859222 72.36073783 140.54314174 77.6756245 140.50793457 83.05322266 C140.5125557 84.61465852 140.51891667 86.17609001 140.52684355 87.73751259 C140.54339389 91.9845791 140.53535643 96.23128167 140.52289867 100.47834873 C140.51379131 105.07557586 140.52784591 109.67274347 140.53881836 114.2699585 C140.55654786 123.25867898 140.55278851 132.2472654 140.5411678 141.235991 C140.53211174 148.54529827 140.53091885 155.85456812 140.53526306 163.16387939 C140.53587599 164.20660275 140.53648893 165.24932611 140.53712043 166.32364714 C140.53839941 168.44232417 140.53969627 170.56100119 140.5410108 172.6796782 C140.55240028 192.51802291 140.53932853 212.35629353 140.51780933 232.19462609 C140.49993985 249.19424094 140.50304441 266.1937465 140.52148438 283.19335938 C140.54291995 302.96368138 140.5513018 322.73393855 140.53903532 342.50427055 C140.53776121 344.61488723 140.53650372 346.72550391 140.53526306 348.83612061 C140.53464596 349.87441879 140.53402886 350.91271697 140.53339306 351.98247874 C140.52994821 359.27782482 140.53574978 366.57312956 140.54518127 373.86846924 C140.55643253 382.76648464 140.55329569 391.66435901 140.5320583 400.56235838 C140.52158985 405.09694646 140.51735378 409.6312999 140.53065491 414.16588593 C140.54267247 418.32598633 140.53586409 422.4856371 140.5147447 426.64569736 C140.51031792 428.14146383 140.51245522 429.63726918 140.52224785 431.13301015 C140.60195718 444.33210201 138.42439543 456.68571295 132.125 468.4375 C131.77767822 469.10652344 131.43035645 469.77554687 131.07250977 470.46484375 C128.47852604 475.35550305 125.61226925 479.79367055 122 484 C121.50371094 484.63808594 121.00742187 485.27617187 120.49609375 485.93359375 C108.7470622 500.4570954 91.06089751 508.59821356 73 512 C67.63926217 512.51859222 62.3243755 512.54314174 56.94677734 512.50793457 C55.38534148 512.5125557 53.82390999 512.51891667 52.26248741 512.52684355 C48.0154209 512.54339389 43.76871833 512.53535643 39.52165127 512.52289867 C34.92442414 512.51379131 30.32725653 512.52784591 25.7300415 512.53881836 C16.74132102 512.55654786 7.7527346 512.55278851 -1.235991 512.5411678 C-8.54529827 512.53211174 -15.85456812 512.53091885 -23.16387939 512.53526306 C-24.20660275 512.53587599 -25.24932611 512.53648893 -26.32364714 512.53712043 C-28.44232417 512.53839941 -30.56100119 512.53969627 -32.6796782 512.5410108 C-52.51802291 512.55240028 -72.35629353 512.53932853 -92.19462609 512.51780933 C-109.19424094 512.49993985 -126.1937465 512.50304441 -143.19335938 512.52148438 C-162.96368138 512.54291995 -182.73393855 512.5513018 -202.50427055 512.53903532 C-204.61488723 512.53776121 -206.72550391 512.53650372 -208.83612061 512.53526306 C-210.39356788 512.53433741 -210.39356788 512.53433741 -211.98247874 512.53339306 C-219.27782482 512.52994821 -226.57312956 512.53574978 -233.86846924 512.54518127 C-242.76648464 512.55643253 -251.66435901 512.55329569 -260.56235838 512.5320583 C-265.09694646 512.52158985 -269.6312999 512.51735378 -274.16588593 512.53065491 C-278.32598633 512.54267247 -282.4856371 512.53586409 -286.64569736 512.5147447 C-288.14146383 512.51031792 -289.63726918 512.51245522 -291.13301015 512.52224785 C-304.33210201 512.60195718 -316.68571295 510.42439543 -328.4375 504.125 C-329.10652344 503.77767822 -329.77554688 503.43035645 -330.46484375 503.07250977 C-335.35550305 500.47852604 -339.79367055 497.61226925 -344 494 C-344.95712891 493.25556641 -344.95712891 493.25556641 -345.93359375 492.49609375 C-360.4456631 480.75631055 -370.2365843 461.44891883 -372.22300148 442.91987038 C-372.5388846 437.80375313 -372.46167782 432.68899462 -372.390625 427.56640625 C-372.38314018 425.95117401 -372.37745789 424.33593253 -372.37347412 422.72068787 C-372.3583936 418.52352651 -372.31927013 414.32694231 -372.2746582 410.13000488 C-372.23331967 405.82568158 -372.2153818 401.52126259 -372.1953125 397.21679688 C-372.1527533 388.81093666 -372.08472349 380.40554065 -372 372 C-369.70661555 374.85179834 -367.46257234 377.68716247 -365.40625 380.71484375 C-351.14997725 401.46624284 -334.44040834 420.14848351 -314 435 C-312.95585937 435.76570313 -311.91171875 436.53140625 -310.8359375 437.3203125 C-268.47210998 467.49008545 -221.18968871 479.58596784 -169.62109375 479.36328125 C-167.18408712 479.36276041 -164.74708007 479.36328674 -162.31007385 479.36479187 C-157.25376953 479.36470313 -152.19762791 479.35447072 -147.14135742 479.33618164 C-140.70342257 479.31338797 -134.26572206 479.31298109 -127.82775784 479.31969929 C-122.8148037 479.32305853 -117.80190178 479.31637428 -112.7889576 479.30657005 C-110.41580542 479.3027597 -108.04264741 479.30155224 -105.66949272 479.3031559 C-65.62652367 479.3076869 -28.60751956 470.36689312 6.16455078 450.23706055 C6.8707959 449.83011963 7.57704102 449.42317871 8.3046875 449.00390625 C9.2325708 448.45972046 9.2325708 448.45972046 10.17919922 447.90454102 C14.17482549 445.91958589 16.70850455 446.05965761 21 447 C35.91267504 448.14857724 48.36136668 444.5006092 60.1484375 435.328125 C68.05977005 428.23520616 74.07604586 416.66100929 75 406 C75.25619747 400.24979022 75.34900037 394.74152922 74.21484375 389.08203125 C73.56773244 384.12320844 75.67348597 381.24787328 78.375 377.25 C84.27159762 367.9082345 88.69885423 358.15554533 93 348 C93.49371094 346.87207031 93.98742187 345.74414062 94.49609375 344.58203125 C105.53203008 318.00639642 107.15612538 289.11520219 107.203125 260.765625 C107.20595238 259.6062014 107.20877975 258.4467778 107.21169281 257.25222015 C107.22661968 251.10906249 107.23588862 244.96592789 107.24023438 238.82275391 C107.24569145 232.55348372 107.26967994 226.28443372 107.29820633 220.01523209 C107.31705263 215.12800529 107.32204997 210.24082906 107.32357025 205.35356903 C107.32655096 203.0464534 107.33441894 200.73933762 107.34775543 198.43225861 C107.45506352 178.43267396 106.55001887 158.08567837 101.25 138.6875 C100.99178467 137.70789307 100.73356934 136.72828613 100.4675293 135.71899414 C90.43589361 98.60584781 72.15788519 65.35572603 45.54150391 37.60888672 C44.51498654 36.53749783 43.49379027 35.4609849 42.47802734 34.37939453 C31.11248107 22.29510723 18.22757466 12.32375234 4.11352539 3.62597656 C2.728851 2.77216579 1.36211058 1.88936538 0 1 C0 0.67 0 0.34 0 0 Z " fill="#AE002C" transform="translate(372,0)"/>
<path d="M0 0 C9.40583297 8.66034536 14.90332545 19.61472774 15.875 32.27734375 C16.41526455 47.12643292 11.59469749 59.79359319 1.62890625 70.7578125 C-8.77137109 80.68295027 -21.78418511 84.57128792 -35.84765625 84.31640625 C-48.94853601 83.40137806 -60.1008586 77.45393655 -69.07421875 67.98046875 C-78.17623533 56.44815183 -81.4648337 43.58406804 -80.37109375 29.0703125 C-78.27412525 16.03034032 -71.59354043 5.32690405 -61.37109375 -2.9296875 C-41.58742521 -15.894713 -18.58093375 -15.12188019 0 0 Z " fill="#F3ECE8" transform="translate(144.37109375,363.9296875)"/>
<path d="M0 0 C9.40583297 8.66034536 14.90332545 19.61472774 15.875 32.27734375 C16.41526455 47.12643292 11.59469749 59.79359319 1.62890625 70.7578125 C-8.77137109 80.68295027 -21.78418511 84.57128792 -35.84765625 84.31640625 C-48.94853601 83.40137806 -60.1008586 77.45393655 -69.07421875 67.98046875 C-78.17623533 56.44815183 -81.4648337 43.58406804 -80.37109375 29.0703125 C-78.27412525 16.03034032 -71.59354043 5.32690405 -61.37109375 -2.9296875 C-41.58742521 -15.894713 -18.58093375 -15.12188019 0 0 Z " fill="#F3ECE8" transform="translate(432.37109375,75.9296875)"/>
<path d="M0 0 C9.40583297 8.66034536 14.90332545 19.61472774 15.875 32.27734375 C16.41526455 47.12643292 11.59469749 59.79359319 1.62890625 70.7578125 C-8.77137109 80.68295027 -21.78418511 84.57128792 -35.84765625 84.31640625 C-48.94853601 83.40137806 -60.1008586 77.45393655 -69.07421875 67.98046875 C-78.17623533 56.44815183 -81.4648337 43.58406804 -80.37109375 29.0703125 C-78.27412525 16.03034032 -71.59354043 5.32690405 -61.37109375 -2.9296875 C-41.58742521 -15.894713 -18.58093375 -15.12188019 0 0 Z " fill="#F3ECE8" transform="translate(144.37109375,75.9296875)"/>
<path d="M0 0 C9.29557491 8.55882614 14.96195769 19.52306739 15.83984375 32.08984375 C16.29290962 46.77963339 12.14281958 59.43490917 2.12890625 70.3203125 C-8.51941725 80.42174325 -21.39918335 84.57826557 -35.84765625 84.31640625 C-48.94853601 83.40137806 -60.1008586 77.45393655 -69.07421875 67.98046875 C-78.17623533 56.44815183 -81.4648337 43.58406804 -80.37109375 29.0703125 C-78.27412525 16.03034032 -71.59354043 5.32690405 -61.37109375 -2.9296875 C-41.58742521 -15.894713 -18.58093375 -15.12188019 0 0 Z " fill="#F3ECE8" transform="translate(432.37109375,363.9296875)"/>
<path d="M0 0 C3.4509854 3.4509854 3.18053288 7.27623551 3.25 12 C3.09754527 25.62945306 -1.23973232 37.18383053 -10.5 47.25 C-21.3520006 57.5446471 -34.01749313 61.20052335 -48.6328125 61.265625 C-52.05656423 60.99553786 -54.80380685 60.22407397 -58 59 C-53.89074878 54.55096573 -48.99486371 51.21460112 -44.10742188 47.68554688 C-39.89362696 44.58798902 -36.15987007 41.31144503 -32.52075195 37.55541992 C-30.77366628 35.76850664 -28.92253348 34.15770558 -27 32.5625 C-16.44623843 23.4011085 -8.02839748 11.37597838 0 0 Z " fill="#C3BCB9" transform="translate(445,387)"/>
</svg>
