<?xml version="1.0" encoding="UTF-8"?>
<svg version="1.1" xmlns="http://www.w3.org/2000/svg" width="512" height="512">
<path d="M0 0 C5.63789833 3.34485688 11.33736438 6.58150485 17.03466797 9.82373047 C18.21614459 10.49733668 19.39754075 11.17108402 20.57885742 11.8449707 C22.95902666 13.20264601 25.33950053 14.55978464 27.72021484 15.91650391 C31.24826859 17.92747043 34.77456855 19.94149588 38.30029297 21.95654297 C38.87707794 22.28618546 39.45386292 22.61582794 40.04812622 22.95545959 C42.37467309 24.2852198 44.701142 25.61511628 47.02752686 26.94515991 C53.51386303 30.65350349 60.00213445 34.35836107 66.49560547 38.05419922 C77.5140916 44.32724798 88.52299685 50.61780712 99.47216797 57.01123047 C100.33825684 57.51098389 101.2043457 58.0107373 102.09667969 58.52563477 C107.86438659 61.91576597 113.08210013 65.7504721 118.28466797 69.94873047 C118.92251221 70.44034668 119.56035645 70.93196289 120.2175293 71.43847656 C138.09936273 85.26709442 145.17618872 110.57181412 148.28466797 131.94873047 C148.37774983 134.0790677 148.42353042 136.21179312 148.43183899 138.34414673 C148.44257195 140.24421227 148.44257195 140.24421227 148.45352173 142.18266296 C148.45636162 143.57424902 148.45907339 144.96583534 148.46166992 146.35742188 C148.46794165 147.83322812 148.47458908 149.30903281 148.48158264 150.78483582 C148.50256121 155.62331049 148.51298713 160.46178522 148.52294922 165.30029297 C148.5270007 166.97455231 148.53111773 168.6488115 148.5352993 170.32307053 C148.55434643 178.20077955 148.56857201 186.07847931 148.57691127 193.95620692 C148.58664748 203.00107894 148.61287374 212.04570388 148.65341216 221.09048903 C148.68377444 228.10997472 148.69839946 235.12939047 148.70169228 242.14894044 C148.7040222 246.32692034 148.71270777 250.50463625 148.73815346 254.68254471 C148.88787511 280.61460195 148.44983872 306.70171111 133.28466797 328.94873047 C132.67623047 329.85365234 132.06779297 330.75857422 131.44091797 331.69091797 C118.09181824 350.81403306 98.64417816 360.32000225 78.66748047 371.38623047 C72.5524854 374.78200827 66.50444455 378.28353721 60.47216797 381.82373047 C48.92843123 388.59235483 37.31792558 395.2403922 25.69166565 401.8657074 C20.79119899 404.65854349 15.89454531 407.45800652 10.99954224 410.26040649 C7.98964019 411.98327453 4.97845962 413.70380707 1.96386719 415.41845703 C-2.84568121 418.15564284 -7.65063116 420.89274569 -12.39501953 423.74169922 C-34.32746962 436.79397665 -60.07621809 442.52567337 -85.23876953 436.84716797 C-102.99409743 432.25871245 -118.54725992 421.95669222 -134.21923828 412.74951172 C-140.93901513 408.80673859 -147.69741892 404.93311991 -154.46533203 401.07373047 C-155.04826019 400.74115234 -155.63118835 400.40857422 -156.23178101 400.06591797 C-159.20146983 398.37166882 -162.17159763 396.67819173 -165.14208984 394.98535156 C-184.36562682 384.02981204 -203.58259613 373.06230169 -222.71533203 361.94873047 C-223.92092773 361.25046143 -223.92092773 361.25046143 -225.15087891 360.53808594 C-232.71351559 356.14552703 -240.10970015 351.73182198 -246.71533203 345.94873047 C-247.45009766 345.30806641 -248.18486328 344.66740234 -248.94189453 344.00732422 C-265.61549437 328.45102746 -274.86762603 304.46620625 -275.84955311 281.85844135 C-275.85382659 280.75300071 -275.85810007 279.64756006 -275.86250305 278.50862122 C-275.86965836 277.23205154 -275.87681366 275.95548187 -275.88418579 274.64022827 C-275.88702567 273.23761011 -275.88973744 271.83499168 -275.89233398 270.43237305 C-275.89860557 268.9450922 -275.90525298 267.4578129 -275.9122467 265.97053528 C-275.93322454 261.09478838 -275.94365015 256.21904143 -275.95361328 251.34326172 C-275.95766459 249.65659761 -275.96178162 247.96993367 -275.96596336 246.28326988 C-275.98500921 238.34843175 -275.99923585 230.41360282 -276.00757533 222.47874624 C-276.01731532 213.36481452 -276.04355216 204.25112776 -276.08407623 195.13728219 C-276.11442147 188.06600789 -276.12906189 180.99480301 -276.13235635 173.92346495 C-276.1346879 169.71365982 -276.14339579 165.50411647 -276.16881752 161.2943821 C-276.34483663 130.54438603 -274.25744457 99.92075368 -252.15283203 76.19873047 C-251.34845703 75.45623047 -250.54408203 74.71373047 -249.71533203 73.94873047 C-249.2206543 73.42819092 -248.72597656 72.90765137 -248.21630859 72.37133789 C-244.16595583 68.12296 -240.08258724 64.96464332 -235.02783203 62.01123047 C-234.26873535 61.55723877 -233.50963867 61.10324707 -232.72753906 60.63549805 C-224.36752113 55.67024864 -215.90726373 50.87234168 -207.45361328 46.06860352 C-199.77934128 41.70761107 -192.14052806 37.29172265 -184.52783203 32.82373047 C-175.44276447 27.4976115 -166.28006681 22.32500377 -157.07885742 17.20263672 C-149.82665929 13.15584565 -142.6321288 9.01973242 -135.46533203 4.82373047 C-133.97996948 3.95735962 -133.97996948 3.95735962 -132.46459961 3.07348633 C-127.69753693 0.29083472 -122.94386187 -2.5108914 -118.21142578 -5.35205078 C-75.86899856 -30.53886088 -40.99116169 -24.537358 0 0 Z " fill="#F03E4C" transform="translate(319.71533203125,48.05126953125)"/>
<path d="M0 0 C4.52840585 2.78671129 8.57824186 6.3500605 10.01567173 11.6195097 C11.61774984 19.84387927 11.74129366 27.96208098 11.74389648 36.3059082 C11.7515337 37.87100615 11.75996383 39.43610039 11.76911926 41.00119019 C11.79091341 45.22242604 11.79984232 49.44358954 11.80494571 53.66487527 C11.80860632 56.3098632 11.81485498 58.95483264 11.8219471 61.59981346 C11.84638625 70.84902136 11.85948211 80.09817359 11.86303711 89.34741211 C11.86667118 97.93453752 11.89657164 106.52130531 11.93844169 115.10832149 C11.97325578 122.51083624 11.98858744 129.91323301 11.98928314 137.31582898 C11.99007197 141.72385411 11.99862835 146.13151387 12.02728081 150.53945351 C12.05365436 154.68887048 12.0555607 158.83762397 12.03962517 162.98708725 C12.03782606 164.49864729 12.04436016 166.01024725 12.06044388 167.52172279 C12.20508227 182.01224089 8.46741213 193.39952299 0.4375 205.5 C0.06496094 206.11875 -0.30757812 206.7375 -0.69140625 207.375 C-3.07383322 211.26162596 -3.07383322 211.26162596 -5.32421875 212.359375 C-7.72116711 213.58085654 -9.58018253 215.13434796 -11.61865234 216.87426758 C-21.2733452 225.01617034 -32.26485349 230.68262209 -43.30761719 236.70166016 C-48.44740041 239.54141737 -53.50378083 242.51895415 -58.5625 245.5 C-66.6758376 250.26570453 -74.84057072 254.92424545 -83.0625 259.5 C-92.32432768 264.65514107 -101.50381361 269.93464207 -110.64624023 275.29833984 C-120.44623294 281.03938942 -130.32858706 286.63141287 -140.23632812 292.18408203 C-142.29805742 293.35040454 -144.33856352 294.54690517 -146.37890625 295.75 C-152.23879895 298.97114347 -158.56535517 301.16618142 -165.3125 300.1875 C-170.69190148 298.58430315 -173.72340724 295.20856032 -176.5625 290.5 C-179.20482368 282.07353238 -178.85410329 273.05334831 -178.8371582 264.32080078 C-178.84151497 262.82304635 -178.8467013 261.32529414 -178.85264587 259.82754517 C-178.86594331 255.79023687 -178.86662496 251.75302271 -178.86408257 247.71569681 C-178.86300656 244.33134562 -178.86791223 240.947013 -178.872688 237.56266582 C-178.88375113 229.57122249 -178.8842386 221.57982617 -178.87817383 213.58837891 C-178.87213605 205.37509084 -178.88444741 197.16197417 -178.9057439 188.94871533 C-178.92342082 181.86808316 -178.9293517 174.78750524 -178.92610615 167.70685184 C-178.92430287 163.49066872 -178.92683321 159.27460789 -178.94082069 155.05844498 C-178.95349417 151.09053873 -178.95136612 147.12289765 -178.93840981 143.15499496 C-178.93606505 141.70914364 -178.93870213 140.26327308 -178.94703293 138.81744385 C-179.05390257 118.80804985 -173.67219616 100.17258298 -159.5625 85.5 C-150.85508076 77.12577282 -140.56928488 71.44468047 -129.98388672 65.80664062 C-125.8011606 63.54953736 -121.68397371 61.17906645 -117.5625 58.8125 C-116.69302734 58.31468018 -115.82355469 57.81686035 -114.92773438 57.30395508 C-106.84222498 52.67084144 -98.77419402 48.00741714 -90.70458984 43.34667969 C-79.80753966 37.05655135 -68.8833072 30.81443874 -57.95436096 24.57998657 C-54.23022456 22.45461195 -50.50952358 20.3233386 -46.79110718 18.18797302 C-44.24479733 16.725793 -41.69758168 15.26519475 -39.15032959 13.80465698 C-37.94305564 13.11185069 -36.73621385 12.41829066 -35.52984619 11.72390747 C-11.32113392 -2.20900174 -11.32113392 -2.20900174 0 0 Z " fill="#C70841" transform="translate(452.5625,171.5)"/>
<path d="M0 0 C11.37194819 5.17312153 18.74609175 14.83435158 23.22265625 26.34765625 C25.48506755 33.98462211 26.24640805 41.06842588 23.09765625 48.578125 C21.31028347 51.60393959 19.18315612 52.87152947 16.0546875 54.34375 C10.07639244 55.56658308 4.97932658 52.47691821 0.0546875 49.34375 C-6.16777176 44.38557133 -10.30367866 38.35474599 -13.9453125 31.34375 C-14.28691406 30.73273438 -14.62851563 30.12171875 -14.98046875 29.4921875 C-17.15970137 24.89045908 -17.24907522 20.17791256 -17.3203125 15.15625 C-17.33433105 14.46644043 -17.34834961 13.77663086 -17.36279297 13.06591797 C-17.32103905 8.64749659 -16.62452922 5.86426666 -13.9453125 2.34375 C-9.60048377 -1.15625092 -5.33862453 -1.80098177 0 0 Z " fill="#ECE0E1" transform="translate(82.9453125,196.65625)"/>
<path d="M0 0 C4.40643512 5.18404131 5.41205361 9.74200703 5.0625 16.375 C3.45422973 29.85061191 -3.63917711 40.07566504 -13.6640625 48.90625 C-18.73821252 52.56394118 -23.76268114 53.37795125 -29.875 52.5 C-33.66238422 50.44163901 -35.90196226 47.82070336 -37.43359375 43.7421875 C-39.38835379 33.81269845 -36.34001631 24.03941631 -31.11328125 15.68359375 C-24.18570719 5.68012236 -13.3513479 -6.96592064 0 0 Z " fill="#EBDFE1" transform="translate(328.875,262.5)"/>
<path d="M0 0 C3.74485406 3.01668799 5.11181058 5.65345178 5.68359375 10.44921875 C5.70735174 11.79927077 5.70775323 13.14989086 5.6875 14.5 C5.67920166 15.21043457 5.67090332 15.92086914 5.66235352 16.65283203 C5.3011563 27.96177556 -0.22168612 37.04935509 -7.95703125 45.11328125 C-13.17124746 49.9721846 -17.63145397 53.22413628 -24.8125 54.25 C-28.8387805 53.6503412 -30.7302376 52.56383907 -33.75 49.8125 C-37.60636257 43.20358878 -37.12773939 36.10303761 -35.75 28.8125 C-32.68633216 17.21930239 -24.93042148 7.08159258 -14.75 0.8125 C-9.66701562 -1.50714677 -5.28406068 -2.28175347 0 0 Z " fill="#EBDFE1" transform="translate(440.75,197.1875)"/>
<path d="M0 0 C3.75067073 2.31424364 6.44654492 4.79787241 7.5546875 9.20703125 C8.88325643 20.01380532 6.05603242 30.29293382 -0.4375 39.04296875 C-1.2109375 40.01169922 -1.2109375 40.01169922 -2 41 C-2.474375 41.63550781 -2.94875 42.27101563 -3.4375 42.92578125 C-7.59129711 48.19704009 -12.61374614 51.87124871 -19 54 C-25.90975167 54.55723804 -25.90975167 54.55723804 -29.8125 52.5625 C-34.0868414 47.55541436 -35.32040996 42.2087851 -35 35.6875 C-33.24248373 22.19431057 -26.09554678 12.47765505 -16.24609375 3.6640625 C-11.21803714 -0.06107161 -6.11483938 -0.92111011 0 0 Z " fill="#EBDFE1" transform="translate(326,392)"/>
<path d="M0 0 C3.57257116 2.96013039 5.03429585 5.60480964 5.62109375 10.23046875 C5.62937136 18.2183612 5.0254888 24.66424587 1.1875 31.8125 C0.56875 33.05773437 0.56875 33.05773437 -0.0625 34.328125 C-4.34848577 42.26693955 -10.94318244 50.07056586 -19.8125 52.8125 C-22.12890625 53.078125 -22.12890625 53.078125 -24.375 53.0625 C-25.49068359 53.07023437 -25.49068359 53.07023437 -26.62890625 53.078125 C-29.1083469 52.77651147 -30.694647 52.12484481 -32.8125 50.8125 C-36.82735191 45.16196768 -37.52054068 39.58946083 -36.8125 32.8125 C-33.8213746 19.58668048 -26.76236836 8.82245194 -15.8125 0.8125 C-10.47631657 -1.74952079 -5.50703859 -2.32519407 0 0 Z " fill="#EBE0E2" transform="translate(440.8125,328.1875)"/>
<path d="M0 0 C3.24879374 1.71325885 5.4165893 4.07184661 7.375 7.1875 C9.56288759 17.03299417 7.37440615 26.87373857 2.5390625 35.65234375 C1.10396839 37.84140863 -0.40564955 39.92516038 -2 42 C-2.598125 42.886875 -3.19625 43.77375 -3.8125 44.6875 C-8.8180205 49.97905024 -14.98559405 54.0471424 -22.375 54.375 C-26.13418494 54.34443752 -26.8210259 54.14089451 -29.9375 51.6875 C-34.93446704 45.17630052 -34.98489991 38.94261336 -34 31 C-30.58795782 18.34762041 -22.10109704 7.83953846 -11 1 C-7.26420563 -0.24526479 -3.87365997 -0.65171217 0 0 Z " fill="#EBE0E2" transform="translate(382,294)"/>
<path d="M0 0 C12.24429009 5.40912414 18.16120921 16.90477402 22.85546875 28.7109375 C24.66336168 34.52971872 24.54449393 41.76556474 22.0859375 47.38671875 C20.34812982 50.12042391 18.65246647 51.61710569 15.9453125 53.421875 C7.88661177 54.24140389 2.582703 51.67546992 -3.6796875 46.734375 C-11.15279978 39.95920715 -17.55280101 28.99658808 -18.328125 18.83984375 C-18.36791807 17.42984259 -18.40155857 16.01965707 -18.4296875 14.609375 C-18.46707031 13.91005859 -18.50445312 13.21074219 -18.54296875 12.49023438 C-18.61023198 8.49554573 -18.2163247 6.12243221 -15.65625 2.97265625 C-11.1076823 -1.48712559 -6.07065073 -1.70809184 0 0 Z " fill="#EBE0E2" transform="translate(197.0546875,392.578125)"/>
<path d="M0 0 C3.97654546 3.21716409 6.35000993 6.19370225 7.15234375 11.3515625 C6.54046643 15.80952581 4.95607252 18.43560408 1.71484375 21.5390625 C-9.18945111 28.64649311 -21.4176855 30.13448236 -34.16015625 28.07421875 C-41.20522114 26.2138813 -47.67767408 22.69964694 -52.34765625 17.0390625 C-53.52894386 13.8889622 -53.7629523 11.88363487 -53.28515625 8.5390625 C-49.5074278 1.54326907 -44.61886323 -1.71079738 -37.28515625 -4.4609375 C-25.48385539 -7.45281659 -10.37216431 -6.63109308 0 0 Z " fill="#ECE0E1" transform="translate(279.28515625,49.4609375)"/>
<path d="M0 0 C6.75172414 6.13793103 6.75172414 6.13793103 7.375 10.8125 C6.78199506 15.85304202 4.30557016 18.7650012 0.6875 22.1875 C-9.45764647 29.02957553 -21.20695841 28.92916408 -33 28 C-40.23443012 26.5645972 -46.00963424 23.45593924 -51 18 C-53.48386059 14.27420911 -53.3804212 12.41288598 -53 8 C-51.05266642 3.18894058 -47.49250284 0.38567392 -43 -2 C-29.01033239 -7.82272652 -13.21566818 -8.18112792 0 0 Z " fill="#ECE0E1" transform="translate(279,179)"/>
<path d="M0 0 C2.6290987 2.24108922 4.65195483 4.47348608 5.4453125 7.953125 C5.73513382 13.01533745 4.40865242 16.15434086 1 20 C-1.26855445 21.60009409 -3.49517971 22.74758986 -6 24 C-6.680625 24.391875 -7.36125 24.78375 -8.0625 25.1875 C-13.21420081 27.34789066 -18.88097243 27.18261208 -24.375 27.1875 C-25.09171875 27.19974609 -25.8084375 27.21199219 -26.546875 27.22460938 C-35.15841353 27.24792582 -43.22507255 25.43175223 -49.75 19.5 C-52.48157422 16.46491754 -53.9098766 14.79609001 -54.375 10.6875 C-53.91061252 6.12102307 -53.06437984 4.42918696 -50 1 C-35.46991138 -9.75637302 -15.02693857 -10.518857 0 0 Z " fill="#ECE0E2" transform="translate(224,83)"/>
<path d="M0 0 C3.99960936 3.28656425 6.56935553 5.91469776 7.28125 11.25390625 C7.139807 15.53648602 5.69610416 17.8557042 2.7578125 20.8984375 C-6.81113893 28.67084666 -17.36371748 29.02398079 -29.21875 28.50390625 C-37.02475645 27.5875994 -44.16911754 24.95950028 -49.71875 19.25390625 C-52.16225672 16.09686864 -53.20202138 13.56520763 -52.859375 9.5546875 C-51.26210687 4.4414816 -47.44985354 0.82280391 -42.92578125 -1.8515625 C-30.13817054 -7.78484251 -11.94671993 -8.05562277 0 0 Z " fill="#ECE0E2" transform="translate(335.21875,146.49609375)"/>
<path d="M0 0 C3.00522349 2.28556909 4.89922223 4.84883335 7 8 C7.46933661 12.14580669 7.2815984 14.44763391 5.375 18.1875 C-0.40782265 25.03557945 -8.39320259 27.55029664 -17 29 C-27.7788124 29.80300608 -38.0225164 28.28423852 -47 22 C-50.58922693 18.71623919 -52.32500748 16.32420396 -52.625 11.5 C-52.37209869 7.73177051 -51.47688565 5.13664843 -48.7578125 2.34765625 C-35.67346508 -7.68367677 -13.95236122 -8.72319688 0 0 Z " fill="#ECE0E1" transform="translate(166,114)"/>
<path d="M0 0 C7.2112091 5.14903385 7.2112091 5.14903385 8.10546875 9.5859375 C8.29015281 13.98757425 7.99207594 16.86897316 5.19921875 20.3828125 C-2.04426862 27.71111823 -11.58654023 29.58559261 -21.55078125 29.9453125 C-31.40640145 29.77220442 -40.86375088 27.19897001 -48.30078125 20.5703125 C-50.6266795 17.71921142 -51.24292904 15.87692922 -51.92578125 12.2578125 C-51.01895571 6.90754184 -48.40353034 4.01422597 -44.30078125 0.5703125 C-31.95455637 -6.63855706 -12.30855237 -7.64843831 0 0 Z " fill="#ECE0E2" transform="translate(390.30078125,113.4296875)"/>
</svg>
